<svg width="130" height="50" xmlns="http://www.w3.org/2000/svg"><g fill="#fff" fill-rule="evenodd"><path d="M44.603 41.418c-3.764 0-6.816-3.044-6.816-6.799 0-3.755 3.052-6.799 6.816-6.799s6.815 3.044 6.815 6.8c0 3.754-3.051 6.798-6.815 6.798m.096-21.93c-8.557 0-15.263 6.3-15.263 15.198 0 8.899 6.706 15.255 15.263 15.255 8.614 0 15.263-6.356 15.263-15.255 0-8.899-6.649-15.197-15.263-15.197m25.027 20.109c.118 1.965 1.528 3.871 4.585 3.871 2.293 0 3.41-1.213 3.41-2.484 0-1.04-.706-1.907-2.881-2.37l-3.35-.75c-6.232-1.33-8.7-4.797-8.7-8.842 0-5.258 4.702-9.534 11.227-9.534 8.466 0 11.405 5.2 11.699 8.552l-7.407 1.329c-.235-1.907-1.47-3.525-4.174-3.525-1.705 0-3.174.983-3.174 2.485 0 1.214.999 1.906 2.292 2.138l3.88.751c6.055 1.214 8.994 4.796 8.994 9.014 0 4.912-3.821 9.708-11.64 9.708-9.17 0-12.11-5.837-12.345-9.014l7.584-1.33zM0 8.613C0 4.41 3.417 1 7.632 1c4.214 0 7.631 3.409 7.631 7.613 0 4.205-3.417 7.613-7.631 7.613C3.417 16.226 0 12.818 0 8.613"/><path d="M26.165 40.204c-1.008.536-2.414.515-2.414.515-1.993 0-3.61-1.62-3.61-3.592V26.936h5.441v-7.69h-5.44v-8.458h-2.366c-1.36 4.877-5.874 8.459-11.235 8.459v7.69h4.857v12.568c0 5.163 4.23 9.349 9.45 9.349a15.4 15.4 0 0 0 5.317-.94v-7.71zm64.323 8.65h8.722V8.614h-8.722zm29.282-11.013v-1.273l-5.418.868c-1.844.29-3.227 1.158-3.227 3.184 0 1.506.98 2.953 3.4 2.953 2.594 0 5.245-1.274 5.245-5.732m-8.818-5.326l6.743-1.042c1.556-.231 2.075-.984 2.075-1.969 0-1.678-1.441-3.126-4.207-3.126-3.055 0-4.726 2.085-4.899 4.226l-7.608-1.563c.346-4.11 4.15-9.552 12.564-9.552 9.28 0 12.68 5.21 12.68 11.115v14.069c0 2.257.288 4.168.345 4.458h-7.895c-.058-.232-.289-1.274-.289-3.243-1.498 2.432-4.264 4.053-8.068 4.053-6.282 0-9.913-4.168-9.913-8.742 0-5.095 3.746-7.99 8.472-8.684"/></g></svg>